<?xml version="1.0"?>
<svg version="1.1" xmlns="http://www.w3.org/2000/svg" xmlns:xlink="http://www.w3.org/1999/xlink" width="220" height="60">
    <desc iVinci="yes" version="4.6" gridStep="20" showGrid="yes" snapToGrid="no" codePlatform="0"/>
    <g id="Layer1" name="Layer 1" opacity="1">
        <g id="Shape1">
            <desc shapeID="1" type="0" basicInfo-basicType="0" basicInfo-roundedRectRadius="12" basicInfo-polygonSides="6" basicInfo-starPoints="5" bounding="rect(-55.5076,-73.9381,111.016,147.876)" text="" font-familyName="" font-pixelSize="20" font-bold="0" font-underline="0" font-alignment="1" strokeStyle="0" markerStart="0" markerEnd="0" shadowEnabled="0" shadowOffsetX="0" shadowOffsetY="2" shadowBlur="4" shadowOpacity="160" blurEnabled="0" blurRadius="4" transform="matrix(0.333363,0,0,0.333003,23.4168,35.2265)" pers-center="0,0" pers-size="0,0" pers-start="0,0" pers-end="0,0" locked="0" mesh="" flag=""/>
            <path id="shapePath1" d="M41.9212,41.4726 C41.9212,46.5565 40.1157,50.8902 36.5043,54.4733 C32.8934,58.0564 28.543,59.848 23.4532,59.848 L17.4912,59.848 C15.7947,59.848 14.3284,59.2426 13.0924,58.0321 C11.8563,56.8217 11.2383,55.3691 11.2383,53.6744 C11.2383,51.9795 11.8442,50.5269 13.056,49.3164 C14.2678,48.106 15.722,47.5009 17.4185,47.5009 L23.3805,47.5009 C25.077,47.5009 26.5191,46.9075 27.7066,45.7213 C28.8943,44.5352 29.488,43.1189 29.488,41.4726 L29.488,29.0529 C29.488,27.3582 28.8943,25.9177 27.7066,24.7314 C26.5191,23.5451 25.1013,22.952 23.4532,22.952 C21.7567,22.952 20.3026,23.5572 19.0908,24.7677 C17.879,25.9783 17.2731,27.4065 17.2731,29.0529 C17.2731,30.2633 17.8062,31.619 18.8726,33.1202 C19.939,34.621 20.4722,35.977 20.4722,37.1875 C20.4722,38.8821 19.8663,40.3347 18.6545,41.5451 C17.4427,42.7556 15.9886,43.361 14.292,43.361 C11.5291,43.361 9.20245,41.5934 7.31205,38.0589 C5.71247,35.1052 4.91267,32.1032 4.91267,29.0529 C4.91267,23.9688 6.71826,19.6231 10.3294,16.0158 C13.9406,12.4086 18.291,10.6049 23.3805,10.6049 C28.4703,10.6049 32.8327,12.4086 36.468,16.0158 C40.1033,19.6231 41.9212,23.9688 41.9212,29.0529 L41.9212,41.4726 Z" style="stroke:none;fill-rule:evenodd;fill:#3073ff;fill-opacity:1;"/>
        </g>
        <g id="Shape2">
            <desc shapeID="2" type="0" basicInfo-basicType="0" basicInfo-roundedRectRadius="12" basicInfo-polygonSides="6" basicInfo-starPoints="5" bounding="rect(-18.2746,-19.9237,36.5493,39.8474)" text="" font-familyName="" font-pixelSize="20" font-bold="0" font-underline="0" font-alignment="1" strokeStyle="0" markerStart="0" markerEnd="0" shadowEnabled="0" shadowOffsetX="0" shadowOffsetY="2" shadowBlur="4" shadowOpacity="160" blurEnabled="0" blurRadius="4" transform="matrix(0.333363,0,0,0.333003,6.09208,13.4559)" pers-center="0,0" pers-size="0,0" pers-start="0,0" pers-end="0,0" locked="0" mesh="" flag=""/>
            <path id="shapePath2" d="M1.39152,14.7735 C0.42457,11.5479 0.0172668,8.17905 0.0172668,8.17905 C-0.113778,7.27222 0.515911,6.67714 1.41599,6.8516 C1.41599,6.8516 4.68008,7.45604 7.1815,8.07902 C9.68292,8.70203 12.1842,9.62642 12.1842,9.62642 C12.1842,9.62642 9.44927,11.2174 7.11096,13.8202 C4.77269,16.423 3.56885,20.0905 3.56885,20.0905 C3.56885,20.0905 2.35851,17.9991 1.39152,14.7735 Z" style="stroke:none;fill-rule:evenodd;fill:#3073ff;fill-opacity:1;"/>
        </g>
        <g id="Shape3">
            <desc shapeID="3" type="0" basicInfo-basicType="0" basicInfo-roundedRectRadius="12" basicInfo-polygonSides="6" basicInfo-starPoints="5" bounding="rect(-18.2749,-19.9237,36.5497,39.8474)" text="" font-familyName="" font-pixelSize="20" font-bold="0" font-underline="0" font-alignment="1" strokeStyle="0" markerStart="0" markerEnd="0" shadowEnabled="0" shadowOffsetX="0" shadowOffsetY="2" shadowBlur="4" shadowOpacity="160" blurEnabled="0" blurRadius="4" transform="matrix(0.333363,0,0,0.333003,41.0414,13.4559)" pers-center="0,0" pers-size="0,0" pers-start="0,0" pers-end="0,0" locked="0" mesh="" flag=""/>
            <path id="shapePath3" d="M45.7418,14.7735 C46.7089,11.5479 47.1163,8.17905 47.1163,8.17905 C47.2473,7.27222 46.6176,6.67714 45.7175,6.8516 C45.7175,6.8516 42.4535,7.45604 39.952,8.07902 C37.4504,8.70203 34.9492,9.62642 34.9492,9.62642 C34.9492,9.62642 37.6841,11.2174 40.0227,13.8202 C42.3609,16.423 43.5646,20.0905 43.5646,20.0905 C43.5646,20.0905 44.7751,17.9991 45.7418,14.7735 Z" style="stroke:none;fill-rule:evenodd;fill:#3073ff;fill-opacity:1;"/>
        </g>
        <g id="Shape4">
            <desc shapeID="4" type="0" basicInfo-basicType="0" basicInfo-roundedRectRadius="12" basicInfo-polygonSides="6" basicInfo-starPoints="5" bounding="rect(-258.179,-90.7048,516.358,181.41)" text="" font-familyName="" font-pixelSize="20" font-bold="0" font-underline="0" font-alignment="1" strokeStyle="0" markerStart="0" markerEnd="0" shadowEnabled="0" shadowOffsetX="0" shadowOffsetY="2" shadowBlur="4" shadowOpacity="160" blurEnabled="0" blurRadius="4" transform="matrix(0.333363,0,0,0.333003,133.962,30.205)" pers-center="0,0" pers-size="0,0" pers-start="0,0" pers-end="0,0" locked="0" mesh="" flag=""/>
            <path id="shapePath4" d="M74.4237,30.2763 C74.4237,31.9383 73.8296,33.3633 72.6409,34.5504 C71.4524,35.7379 70.026,36.3313 68.3622,36.3313 L60.0894,36.3313 L60.0894,42.2441 C60.0894,43.9065 59.495,45.3311 58.3066,46.5185 C57.1182,47.7057 55.6917,48.2994 54.0275,48.2994 C52.3161,48.2994 50.8659,47.7057 49.6775,46.5185 C48.4891,45.3311 47.8947,43.9065 47.8947,42.2441 L47.8947,18.0945 C47.8947,13.1078 49.6655,8.84542 53.2075,5.30723 C56.7495,1.76908 61.0165,-1.90735e-06 66.0086,-1.90735e-06 L68.3622,-1.90735e-06 C70.026,-1.90735e-06 71.4524,0.593643 72.6409,1.78096 C73.8296,2.96825 74.4237,4.39304 74.4237,6.05526 C74.4237,7.71747 73.8296,9.14223 72.6409,10.3295 C71.4524,11.5168 70.026,12.1105 68.3622,12.1105 L66.0799,12.1105 C64.4158,12.1105 62.9897,12.7041 61.8009,13.8914 C60.6125,15.0787 60.0181,16.4798 60.0181,18.0945 L60.0181,24.221 L68.3622,24.221 C70.026,24.221 71.4524,24.8146 72.6409,26.0019 C73.8296,27.1894 74.4237,28.614 74.4237,30.2763 M113.284,31.2737 C113.284,35.0729 112.19,38.5398 110.004,41.6744 C107.816,44.8089 104.916,47.0171 101.303,48.2994 L101.303,54.3548 C101.303,56.0168 100.709,57.4417 99.5202,58.6289 C98.3315,59.8164 96.9053,60.4101 95.2412,60.4101 C93.5771,60.4101 92.1509,59.8164 90.9622,58.6289 C89.7737,57.4417 89.1793,56.0168 89.1793,54.3548 L89.1793,48.2994 C85.566,47.0171 82.6421,44.8089 80.4075,41.6744 C78.173,38.5398 77.0559,35.0729 77.0559,31.2737 L77.0559,18.1657 C77.0559,16.5035 77.65,15.0787 78.8387,13.8914 C80.0272,12.7041 81.4536,12.1105 83.1175,12.1105 C84.7816,12.1105 86.2081,12.7041 87.3965,13.8914 C88.5849,15.0787 89.1793,16.5035 89.1793,18.1657 L89.1793,31.2737 C89.1793,32.8884 89.7737,34.2893 90.9622,35.4765 C92.1509,36.664 93.5534,37.2574 95.1699,37.2574 C96.7863,37.2574 98.1771,36.6756 99.3419,35.5121 C100.507,34.3486 101.089,32.9357 101.089,31.2737 L101.089,18.1657 C101.089,16.5035 101.683,15.0787 102.872,13.8914 C104.06,12.7041 105.487,12.1105 107.151,12.1105 C108.815,12.1105 110.253,12.7041 111.465,13.8914 C112.678,15.0787 113.284,16.5035 113.284,18.1657 L113.284,31.2737 M151.932,42.2441 C151.932,43.9065 151.338,45.3311 150.149,46.5185 C148.961,47.7057 147.535,48.2994 145.87,48.2994 L134.175,48.2994 C129.183,48.2994 124.904,46.5305 121.338,42.9924 C117.772,39.4542 115.989,35.1918 115.989,30.2051 C115.989,25.2183 117.761,20.9678 121.303,17.4534 C124.844,13.9389 129.112,12.1817 134.103,12.1817 L145.799,12.1817 C147.463,12.1817 148.901,12.7754 150.114,13.9627 C151.326,15.15 151.932,16.5748 151.932,18.237 C151.932,19.8992 151.338,21.324 150.149,22.5113 C148.961,23.6986 147.535,24.2922 145.87,24.2922 L134.175,24.2922 C132.511,24.2922 131.084,24.874 129.896,26.0375 C128.707,27.201 128.113,28.5903 128.113,30.2051 C128.113,31.8198 128.707,33.2207 129.896,34.4079 C131.084,35.5954 132.487,36.1891 134.103,36.1891 L145.799,36.1891 C147.463,36.1891 148.901,36.7825 150.114,37.97 C151.326,39.1572 151.932,40.5821 151.932,42.2441 M191.004,42.2441 C191.004,43.9065 190.41,45.3311 189.221,46.5185 C188.032,47.7057 186.606,48.2994 184.942,48.2994 L172.89,48.2994 C167.945,48.2994 163.69,46.5305 160.125,42.9924 C156.559,39.4542 154.776,35.1918 154.776,30.2051 C154.776,25.2183 156.547,20.9678 160.089,17.4534 C163.631,13.9389 167.874,12.1817 172.819,12.1817 C177.811,12.1817 182.09,13.9389 185.656,17.4534 C189.221,20.9678 191.004,25.2183 191.004,30.2051 L191.004,42.2441 M178.881,30.2051 C178.881,28.5903 178.298,27.201 177.133,26.0375 C175.968,24.874 174.554,24.2922 172.89,24.2922 C171.226,24.2922 169.811,24.874 168.647,26.0375 C167.482,27.201 166.9,28.5903 166.9,30.2051 C166.9,31.8671 167.482,33.28 168.647,34.4435 C169.811,35.6074 171.202,36.1891 172.819,36.1891 L178.809,36.1891 L178.881,30.2051 M220.029,42.2441 C220.029,43.9065 219.435,45.3311 218.246,46.5185 C217.058,47.7057 215.632,48.2994 213.967,48.2994 L212.47,48.2994 C207.478,48.2994 203.199,46.5305 199.633,42.9924 C196.067,39.4542 194.285,35.1918 194.285,30.2051 L194.285,6.05526 C194.285,4.39304 194.891,2.96825 196.103,1.78096 C197.316,0.593643 198.754,-1.90735e-06 200.418,-1.90735e-06 C202.082,-1.90735e-06 203.508,0.593643 204.697,1.78096 C205.885,2.96825 206.479,4.39304 206.479,6.05526 L206.479,12.1105 L213.967,12.1105 C215.632,12.1105 217.058,12.7041 218.246,13.8914 C219.435,15.0787 220.029,16.5035 220.029,18.1657 C220.029,19.828 219.435,21.2527 218.246,22.44 C217.058,23.6273 215.632,24.221 213.967,24.221 L206.408,24.221 L206.408,30.2051 C206.408,31.8198 207.002,33.2207 208.191,34.4079 C209.38,35.5954 210.782,36.1891 212.399,36.1891 L213.967,36.1891 C215.632,36.1891 217.058,36.7825 218.246,37.97 C219.435,39.1572 220.029,40.5821 220.029,42.2441 Z" style="stroke:none;fill-rule:evenodd;fill:#3073ff;fill-opacity:1;"/>
        </g>
    </g>
</svg>
